<svg width="200" height="64" viewBox="0 0 200 64" fill="none" xmlns="http://www.w3.org/2000/svg">
  <g id="aitoolsfor-logo">
    <!-- Background element with improved gradient -->
    <rect x="10" y="12" width="180" height="40" rx="12" fill="url(#paint0_linear)" fill-opacity="0.08"/>
    
    <!-- Main text combination with enhanced styling -->
    <g filter="url(#shadow_effect)">
      <!-- AI part - with primary theme gradient highlight -->
      <path d="M30 20L36 44H42L48 20H42L39 36L36 20H30Z" fill="url(#paint1_linear)"/>
      
      <!-- toolsFor part - with improved styling -->
      <path d="M53 27.5V31H58C59.5 31 60 31.5 60 32.5C60 33.5 59.5 34 58 34H53V41H57V37H62V34C62 32.5 61 31 59.5 31C61 31 62 29 62 27.5H53Z" fill="url(#paint2_linear)"/>
      <path d="M65 27.5V41H69V34H72C74 34 75.5 33 75.5 30.5V29.5C75.5 28 74 27.5 72 27.5H65ZM69 30H71.5C72 30 72.3 30.2 72.3 30.5C72.3 30.8 72 31 71.5 31H69V30Z" fill="url(#paint2_linear)"/>
      <path d="M78 27.5V41H82V34H85C87 34 88.5 33 88.5 30.5V29.5C88.5 28 87 27.5 85 27.5H78ZM82 30H84.5C85 30 85.3 30.2 85.3 30.5C85.3 30.8 85 31 84.5 31H82V30Z" fill="url(#paint2_linear)"/>
      <path d="M91 27.5V41H95V27.5H91Z" fill="url(#paint2_linear)"/>
      <path d="M97.5 34.5C97.5 38 100 42 105 42C109 42 111 39.5 111 37H107C106.5 37.8 106 38.5 105 38.5C103.5 38.5 101.5 37 101.5 34.5C101.5 32 103.5 30.5 105 30.5C106 30.5 106.5 31.2 107 32H111C111 29.5 109 27 105 27C100 27 97.5 31 97.5 34.5Z" fill="url(#paint2_linear)"/>
      
      <!-- For part with accent color -->
      <path d="M114 27.5V41H118V36H121C123 36 125 34 125 31.7C125 29.5 123 27.5 121 27.5H114ZM118 30.5H120.5C121 30.5 121.5 31 121.5 31.7C121.5 32.5 121 33 120.5 33H118V30.5Z" fill="url(#paint3_linear)"/>
      <path d="M127 27.5V41H131V34.5H135V41H139V27.5H135V31.5H131V27.5H127Z" fill="url(#paint3_linear)"/>
    </g>
    
    <!-- Decorative elements with enhanced gradients -->
    <path d="M28 48H167" stroke="url(#paint4_linear)" stroke-width="2" stroke-linecap="round"/>
    <path d="M45 16H150" stroke="url(#paint5_linear)" stroke-width="1" stroke-linecap="round"/>
    
    <!-- Accent elements -->
    <circle cx="170" cy="23" r="3" fill="url(#paint1_linear)" fill-opacity="0.9"/>
    <circle cx="25" cy="28" r="2" fill="url(#paint3_linear)" fill-opacity="0.8"/>
  </g>
  
  <defs>
    <!-- Enhanced gradient definitions -->
    <linearGradient id="paint0_linear" x1="10" y1="12" x2="190" y2="52" gradientUnits="userSpaceOnUse">
      <stop stop-color="#4F46E5"/>
      <stop offset="1" stop-color="#10B981"/>
    </linearGradient>
    <!-- AI section gradient - primary blue theme -->
    <linearGradient id="paint1_linear" x1="30" y1="20" x2="48" y2="44" gradientUnits="userSpaceOnUse">
      <stop stop-color="#60A5FA"/>
      <stop offset="1" stop-color="#3B82F6"/>
    </linearGradient>
    <!-- tools section gradient - with subtle shift -->
    <linearGradient id="paint2_linear" x1="53" y1="27" x2="111" y2="42" gradientUnits="userSpaceOnUse">
      <stop stop-color="#f5f5f5"/>
      <stop offset="1" stop-color="#e0e7ff"/>
    </linearGradient>
    <!-- for section gradient - accent color -->
    <linearGradient id="paint3_linear" x1="114" y1="27.5" x2="139" y2="41" gradientUnits="userSpaceOnUse">
      <stop stop-color="#10B981"/>
      <stop offset="1" stop-color="#14b8a6"/>
    </linearGradient>
    <linearGradient id="paint4_linear" x1="28" y1="48.5" x2="167" y2="48.5" gradientUnits="userSpaceOnUse">
      <stop stop-color="#3B82F6" stop-opacity="0"/>
      <stop offset="0.5" stop-color="#3B82F6"/>
      <stop offset="1" stop-color="#3B82F6" stop-opacity="0"/>
    </linearGradient>
    <linearGradient id="paint5_linear" x1="45" y1="16.5" x2="150" y2="16.5" gradientUnits="userSpaceOnUse">
      <stop stop-color="#4F46E5" stop-opacity="0"/>
      <stop offset="0.5" stop-color="#4F46E5" stop-opacity="0.5"/>
      <stop offset="1" stop-color="#4F46E5" stop-opacity="0"/>
    </linearGradient>
    
    <!-- Enhanced shadow effect -->
    <filter id="shadow_effect" x="0" y="0" width="200" height="64" filterUnits="userSpaceOnUse" color-interpolation-filters="sRGB">
      <feFlood flood-opacity="0" result="BackgroundImageFix"/>
      <feColorMatrix in="SourceAlpha" type="matrix" values="0 0 0 0 0 0 0 0 0 0 0 0 0 0 0 0 0 0 127 0" result="hardAlpha"/>
      <feOffset dy="1.5"/>
      <feGaussianBlur stdDeviation="1.2"/>
      <feComposite in2="hardAlpha" operator="out"/>
      <feColorMatrix type="matrix" values="0 0 0 0 0.231 0 0 0 0 0.51 0 0 0 0 0.965 0 0 0 0.35 0"/>
      <feBlend mode="normal" in2="BackgroundImageFix" result="effect1_dropShadow"/>
      <feBlend mode="normal" in="SourceGraphic" in2="effect1_dropShadow" result="shape"/>
    </filter>
  </defs>
</svg>
